<?xml version="1.0" standalone="no"?>
<!DOCTYPE svg PUBLIC "-//W3C//DTD SVG 20010904//EN"
 "http://www.w3.org/TR/2001/REC-SVG-20010904/DTD/svg10.dtd">
<svg version="1.0" xmlns="http://www.w3.org/2000/svg"
 width="2048.000000pt" height="1256.000000pt" viewBox="0 0 2048.000000 1256.000000"
 preserveAspectRatio="xMidYMid meet">

<g transform="translate(0.000000,1256.000000) scale(0.100000,-0.100000)"
fill="#000000" stroke="none">
<path d="M14170 12554 c-198 -19 -573 -102 -792 -174 -938 -312 -1813 -934
-2633 -1871 -100 -114 -127 -146 -211 -247 -30 -37 -30 -17 1 -337 25 -254 38
-607 31 -855 l-6 -235 22 35 c276 445 672 945 1081 1365 122 125 148 147 158
135 9 -13 10 -12 5 3 -6 18 111 223 187 327 78 106 206 221 303 272 87 45 206
88 246 88 10 0 72 37 136 83 221 157 365 245 563 344 292 146 517 215 752 231
359 25 587 -98 623 -335 32 -214 -20 -434 -236 -993 -65 -168 -128 -334 -141
-369 l-23 -63 40 -34 c21 -19 57 -47 79 -62 22 -15 48 -34 57 -42 9 -8 84 -57
167 -109 83 -51 148 -97 145 -102 -3 -5 2 -6 11 -3 9 4 23 0 33 -7 36 -29 273
-148 377 -190 33 -13 62 -26 65 -29 3 -3 12 -6 20 -6 8 -1 24 -5 35 -10 12 -4
2 12 -26 42 -118 128 -169 253 -177 432 -10 250 38 443 259 1035 179 478 230
668 231 861 1 426 -304 708 -867 801 -97 16 -419 28 -515 19z"/>
<path d="M13137 10929 c7 -7 15 -10 18 -7 3 3 -2 9 -12 12 -14 6 -15 5 -6 -5z"/>
<path d="M18102 10819 c-11 -24 -23 -55 -27 -69 -15 -49 -172 -356 -229 -447
-286 -461 -669 -833 -1063 -1031 -75 -38 -82 -48 -35 -45 223 11 556 13 695 4
224 -15 342 -34 462 -73 l99 -33 95 100 c182 190 226 240 389 440 67 81 122
173 122 202 0 11 -103 228 -230 482 -126 254 -230 465 -230 469 0 4 -7 16 -15
26 -14 18 -16 16 -33 -25z"/>
<path d="M11775 10299 c-4 -6 -5 -12 -2 -15 2 -3 7 2 10 11 7 17 1 20 -8 4z"/>
<path d="M13910 10256 c0 -2 8 -10 18 -17 15 -13 16 -12 3 4 -13 16 -21 21
-21 13z"/>
<path d="M8528 9856 c-312 -92 -494 -408 -563 -976 -8 -68 -15 -153 -15 -188
l0 -64 72 98 c231 317 452 545 598 619 137 69 286 97 510 96 91 -1 188 -3 215
-5 28 -2 129 -7 225 -11 l175 -6 -35 31 c-125 113 -473 309 -653 369 -203 67
-384 80 -529 37z"/>
<path d="M11455 9519 c-4 -6 -5 -12 -2 -15 2 -3 7 2 10 11 7 17 1 20 -8 4z"/>
<path d="M11376 9265 c-9 -26 -7 -32 5 -12 6 10 9 21 6 23 -2 3 -7 -2 -11 -11z"/>
<path d="M15670 9250 c8 -5 22 -9 30 -9 10 0 8 3 -5 9 -27 12 -43 12 -25 0z"/>
<path d="M5580 9233 c-226 -35 -451 -192 -663 -465 -116 -149 -279 -410 -265
-423 3 -3 141 64 309 148 532 268 676 291 1027 161 120 -44 349 -154 497 -240
62 -35 115 -64 119 -64 26 0 -217 400 -311 513 -71 84 -215 219 -278 259 -143
92 -300 132 -435 111z"/>
<path d="M15848 9223 c6 -2 18 -2 25 0 6 3 1 5 -13 5 -14 0 -19 -2 -12 -5z"/>
<path d="M16178 9213 c56 -2 148 -2 205 0 56 1 10 3 -103 3 -113 0 -159 -2
-102 -3z"/>
<path d="M18230 8986 c0 -2 8 -10 18 -17 15 -13 16 -12 3 4 -13 16 -21 21 -21
13z"/>
<path d="M11222 8580 c0 -14 2 -19 5 -12 2 6 2 18 0 25 -3 6 -5 1 -5 -13z"/>
<path d="M18451 8584 c0 -11 3 -14 6 -6 3 7 2 16 -1 19 -3 4 -6 -2 -5 -13z"/>
<path d="M12180 8493 c0 -61 148 -424 227 -556 29 -48 53 -92 53 -97 0 -6 4
-10 9 -10 4 0 21 -18 35 -41 46 -68 175 -197 247 -245 89 -59 166 -89 263
-104 303 -46 643 137 1011 543 99 110 105 123 44 107 -55 -15 -232 -30 -349
-30 -213 0 -411 31 -737 115 -291 76 -480 151 -685 272 -59 35 -109 63 -112
63 -3 0 -6 -7 -6 -17z"/>
<path d="M18472 8420 c0 -14 2 -19 5 -12 2 6 2 18 0 25 -3 6 -5 1 -5 -13z"/>
<path d="M11171 8254 c0 -11 3 -14 6 -6 3 7 2 16 -1 19 -3 4 -6 -2 -5 -13z"/>
<path d="M18471 8254 c0 -11 3 -14 6 -6 3 7 2 16 -1 19 -3 4 -6 -2 -5 -13z"/>
<path d="M9429 7932 c-202 -177 -647 -446 -939 -567 -36 -15 -92 -38 -125 -52
-92 -38 -368 -128 -480 -157 -170 -43 -243 -56 -440 -77 -659 -68 -1264 -75
-1618 -18 -112 18 -228 42 -263 56 -28 11 -11 -16 91 -145 376 -473 869 -824
1367 -976 226 -69 520 -103 751 -86 142 10 162 13 242 37 253 76 504 206 710
368 445 350 696 839 755 1470 12 134 13 185 1 185 -4 0 -28 -17 -52 -38z"/>
<path d="M3825 7895 c-27 -7 -93 -23 -145 -35 -644 -148 -1430 -432 -1980
-718 -348 -180 -647 -360 -790 -475 -109 -88 -413 -395 -507 -514 -368 -461
-485 -871 -343 -1204 40 -96 78 -153 168 -258 259 -303 665 -451 1240 -451
461 0 922 87 1482 279 584 200 1208 271 1630 185 175 -36 355 -115 479 -211
95 -73 198 -193 238 -275 78 -160 58 -410 -53 -643 -165 -348 -573 -684 -1154
-949 -135 -62 -422 -178 -532 -215 -43 -14 -77 -30 -76 -36 1 -8 196 -157 487
-372 13 -10 60 -45 104 -78 44 -33 130 -97 191 -142 l111 -82 94 50 c245 131
526 315 766 502 535 418 871 866 984 1312 77 308 41 624 -108 925 -72 147
-185 319 -261 400 -8 9 -33 36 -56 61 -50 55 -171 162 -244 215 -242 178 -565
288 -945 324 -416 38 -986 -32 -1710 -212 -900 -223 -1392 -273 -1704 -171
-253 82 -345 280 -233 499 174 341 924 823 1722 1107 129 45 411 132 605 186
232 64 764 180 970 212 44 6 82 13 84 15 1 1 -23 44 -54 95 -32 51 -65 106
-75 123 -109 189 -172 304 -232 424 -48 94 -77 142 -87 141 -9 0 -38 -7 -66
-14z"/>
<path d="M18421 7884 c0 -11 3 -14 6 -6 3 7 2 16 -1 19 -3 4 -6 -2 -5 -13z"/>
<path d="M15344 7579 c-4 -7 -7 -123 -7 -258 0 -205 4 -267 22 -371 41 -243
110 -402 223 -520 72 -74 98 -95 165 -128 81 -41 123 -53 227 -66 260 -32 558
38 911 215 100 51 142 76 134 82 -2 2 -81 28 -174 59 -94 31 -205 73 -247 92
-41 20 -78 36 -81 36 -4 0 -155 83 -267 147 -271 156 -557 379 -806 631 -61
62 -95 89 -100 81z"/>
<path d="M11113 7540 c0 -25 2 -35 4 -22 2 12 2 32 0 45 -2 12 -4 2 -4 -23z"/>
<path d="M10550 7365 c-52 -7 -128 -21 -167 -30 l-73 -17 -11 -41 c-29 -113
-154 -472 -220 -632 -83 -206 -258 -560 -352 -716 -156 -259 -262 -399 -426
-567 -56 -57 -101 -109 -101 -115 0 -25 86 -227 150 -352 138 -270 309 -527
569 -855 84 -107 201 -231 441 -470 492 -489 640 -662 743 -866 45 -89 61
-175 52 -278 -30 -351 -282 -489 -722 -395 -273 57 -612 209 -924 414 -457
299 -814 657 -1020 1023 l-46 82 -151 -362 c-200 -481 -242 -585 -242 -597 0
-5 25 -42 55 -82 403 -532 1084 -995 1747 -1188 254 -74 452 -103 708 -103
479 0 908 152 1172 414 465 463 375 1258 -221 1946 -43 50 -85 98 -93 106 -7
7 -96 99 -198 203 -403 411 -522 540 -683 743 -161 201 -300 435 -371 622 -95
255 -87 536 22 754 162 322 423 470 791 451 64 -4 135 -9 157 -13 47 -7 45
-20 24 116 -23 157 -41 373 -47 586 l-6 221 -75 7 c-120 10 -379 5 -482 -9z"/>
<path d="M18190 7179 c-7 -11 -10 -23 -7 -25 2 -2 9 7 15 21 14 30 7 33 -8 4z"/>
<path d="M11191 6354 c0 -11 3 -14 6 -6 3 7 2 16 -1 19 -3 4 -6 -2 -5 -13z"/>
<path d="M13254 6235 c-209 -31 -415 -101 -649 -222 -58 -30 -245 -149 -255
-162 -3 -4 -23 -20 -46 -36 -83 -61 -152 -123 -266 -239 -65 -66 -118 -123
-118 -126 0 -4 55 -11 123 -14 127 -8 332 -35 465 -62 89 -18 360 -87 424
-108 24 -8 90 -29 148 -46 58 -17 119 -37 135 -44 17 -8 62 -24 100 -36 69
-23 185 -69 380 -150 55 -23 127 -53 160 -67 78 -32 417 -198 475 -233 25 -15
92 -53 150 -86 108 -60 450 -286 506 -333 17 -14 44 -35 59 -46 39 -28 84 -64
125 -102 19 -18 38 -33 41 -33 14 0 21 102 18 281 -6 389 -66 679 -200 965
-42 89 -121 228 -139 244 -3 3 -13 17 -23 33 -24 38 -58 76 -152 174 -230 238
-504 374 -883 439 -117 19 -176 24 -315 23 -95 -1 -213 -7 -263 -14z"/>
<path d="M11231 6144 c0 -11 3 -14 6 -6 3 7 2 16 -1 19 -3 4 -6 -2 -5 -13z"/>
<path d="M17430 5648 c-65 -101 -225 -327 -271 -385 -19 -23 -52 -66 -74 -94
-22 -28 -50 -63 -63 -78 -13 -14 -42 -50 -64 -78 -22 -29 -45 -53 -51 -53 -31
0 16 -13 164 -45 565 -122 953 -255 1145 -390 214 -152 227 -302 42 -482 -96
-92 -223 -174 -433 -277 -93 -46 -276 -136 -405 -200 -213 -104 -389 -200
-525 -284 -27 -17 -70 -43 -95 -58 -353 -214 -721 -549 -888 -809 -229 -356
-251 -687 -69 -1050 81 -163 166 -275 331 -440 244 -243 520 -426 871 -575
228 -98 642 -219 936 -274 292 -55 443 -69 759 -70 188 -1 337 4 410 12 245
29 545 101 741 178 97 38 271 122 301 146 17 13 40 91 122 408 19 74 58 223
86 330 78 291 79 295 76 297 -1 2 -30 -17 -64 -42 -294 -214 -660 -368 -1045
-439 -230 -42 -336 -51 -627 -50 -309 0 -453 14 -735 69 -279 55 -392 95 -653
231 -135 70 -174 94 -280 175 -156 119 -240 225 -294 373 -45 121 -49 225 -13
331 66 196 221 363 530 570 190 127 278 177 565 317 135 66 328 161 430 211
102 50 201 100 220 112 19 12 80 49 135 81 211 123 384 253 525 394 511 509
364 1007 -439 1490 -206 123 -559 290 -846 397 -145 55 -375 133 -390 133 -6
0 -35 -37 -65 -82z"/>
<path d="M11700 4771 c0 -6 4 -13 10 -16 6 -3 7 1 4 9 -7 18 -14 21 -14 7z"/>
<path d="M16245 4310 c-3 -6 1 -7 9 -4 18 7 21 14 7 14 -6 0 -13 -4 -16 -10z"/>
<path d="M12265 3850 c10 -11 20 -20 23 -20 3 0 -3 9 -13 20 -10 11 -20 20
-23 20 -3 0 3 -9 13 -20z"/>
<path d="M15447 3726 c-48 -29 -61 -43 -22 -23 31 16 74 46 65 46 -3 0 -22
-10 -43 -23z"/>
<path d="M15285 3630 c-3 -6 1 -7 9 -4 18 7 21 14 7 14 -6 0 -13 -4 -16 -10z"/>
<path d="M14930 3450 c-8 -5 -10 -10 -5 -10 6 0 17 5 25 10 8 5 11 10 5 10 -5
0 -17 -5 -25 -10z"/>
<path d="M13958 3173 c7 -3 16 -2 19 1 4 3 -2 6 -13 5 -11 0 -14 -3 -6 -6z"/>
<path d="M13713 3163 c26 -2 67 -2 90 0 23 2 2 3 -48 3 -49 0 -68 -1 -42 -3z"/>
</g>
</svg>
